<svg width="128" height="128" viewBox="0 0 128 128" fill="none" xmlns="http://www.w3.org/2000/svg">
<circle cx="64" cy="64" r="64" fill="#0A0A0A"/>
<path d="M118 64C118 93.8234 93.8234 118 64 118C34.1766 118 10 93.8234 10 64C10 34.1766 34.1766 10 64 10C93.8234 10 118 34.1766 118 64ZM15.1449 64C15.1449 90.9819 37.0181 112.855 64 112.855C90.9819 112.855 112.855 90.9819 112.855 64C112.855 37.0181 90.9819 15.1449 64 15.1449C37.0181 15.1449 15.1449 37.0181 15.1449 64Z" fill="white"/>
<path d="M61.4877 30.0517C54.7932 30.722 49.3641 33.3017 45.976 37.4252C42.5675 41.5283 41.2 45.7736 41.4449 51.4205C41.5674 54.5486 41.9348 56.0314 43.2206 58.672C45.3229 63.0392 48.9763 66.0252 54.6503 68.0767C57.0383 68.9298 61.2224 70.1892 65.3248 71.2861C70.6314 72.6877 72.7337 73.6423 74.142 75.2877C76.0197 77.4611 75.8156 81.4017 73.7134 83.7377C72.4888 85.0986 71.1825 85.8705 69.2436 86.4392C67.8353 86.8455 67.1617 86.9064 64.2431 86.9064C61.2836 86.9064 60.6917 86.8455 59.3446 86.4392C55.6912 85.3017 52.6093 82.9252 50.3233 79.4314C49.7519 78.5783 49.2212 77.8673 49.1395 77.8673C48.8742 77.8673 39.6488 83.1689 39.261 83.5345C38.8937 83.9002 38.9141 83.9408 39.3223 84.8548C40.5877 87.7392 44.2003 92.0048 46.8536 93.772C48.8742 95.1127 51.201 96.2095 53.7727 97.0423C57.5281 98.2408 59.2426 98.4642 64.4472 98.4845C68.4271 98.4845 69.3456 98.4236 71.3254 98.0173C73.795 97.5298 77.1627 96.433 78.8159 95.6002C81.5509 94.2189 84.245 92.0048 86.0411 89.6283C87.1024 88.2267 88.5924 85.0783 89.021 83.3314C89.4292 81.6658 89.7762 78.1314 89.6537 76.872C89.6129 76.3642 89.5108 75.3486 89.4496 74.658C89.123 71.2658 87.1024 67.2439 84.4899 64.8267C81.5713 62.1048 77.5505 60.3173 69.0599 57.9408C61.3652 55.7673 57.9159 54.3455 56.5076 52.7611C55.4871 51.6033 55.181 50.5064 55.3034 48.272C55.3851 46.8705 55.5075 46.2611 55.9361 45.4486C57.1403 43.0923 59.6304 41.8533 63.7736 41.5892C68.7333 41.2642 72.7949 43.4377 75.8973 48.0689C76.5912 49.1048 77.2239 49.958 77.3056 49.9986C77.4688 50.0595 81.6529 47.7845 85.735 45.4283C87.6127 44.3314 87.6331 44.2502 86.4697 41.9345C84.8981 38.8064 81.8774 35.3533 79.2037 33.6674C76.979 32.2252 73.795 31.0674 70.3865 30.458C68.7129 30.133 63.1001 29.8892 61.4877 30.0517Z" fill="white"/>
</svg>
